Coordinates
version=1
nRows=7
nColumns=63
inDegrees=yes

Units are S.I. units (second, meters, Newtons, ...)
If the header above contains a line with 'inDegrees', this indicates whether rotational values are in degrees (yes) or radians (no).

endheader
time	pelvis_tilt	pelvis_list	pelvis_rotation	pelvis_tx	pelvis_ty	pelvis_tz	hip_flexion_r	hip_adduction_r	hip_rotation_r	knee_angle_r	knee_angle_r_beta	ankle_angle_r	subtalar_angle_r	mtp_angle_r	hip_flexion_l	hip_adduction_l	hip_rotation_l	knee_angle_l	knee_angle_l_beta	ankle_angle_l	subtalar_angle_l	mtp_angle_l	L5_S1_Flex_Ext	L5_S1_Lat_Bending	L5_S1_axial_rotation	L4_L5_Flex_Ext	L4_L5_Lat_Bending	L4_L5_axial_rotation	L3_L4_Flex_Ext	L3_L4_Lat_Bending	L3_L4_axial_rotation	L2_L3_Flex_Ext	L2_L3_Lat_Bending	L2_L3_axial_rotation	L1_L2_Flex_Ext	L1_L2_Lat_Bending	L1_L2_axial_rotation	L1_T12_Flex_Ext	L1_T12_Lat_Bending	L1_T12_axial_rotation	Abs_r3	Abs_r2	Abs_r1	Abs_t1	Abs_t2	neck_flexion	neck_bending	neck_rotation	arm_flex_r	arm_add_r	arm_rot_r	elbow_flex_r	pro_sup_r	wrist_flex_r	wrist_dev_r	arm_flex_l	arm_add_l	arm_rot_l	elbow_flex_l	pro_sup_l	wrist_flex_l	wrist_dev_l
     10.40800000	    -42.28708272	     -6.89982391	      0.67019787	     -0.39133865	      1.11675400	      0.00581304	    105.35769923	     -8.48422562	     -7.98431205	     76.24095807	      1.33065574	     11.35975370	     -6.44457521	      0.00000000	     90.45819616	     -3.13712733	     10.63554721	     82.22392086	      1.43507814	      3.00206900	     -7.61453127	      0.00000000	     -0.08436869	      1.23937054	     -0.33305356	     -0.15668109	      1.64836281	     -0.35386941	     -0.13860932	      3.01340552	     -0.35386941	     -0.09642497	      3.01340552	     -0.29142187	     -0.07834476	      2.52732440	     -0.27060602	     -0.04820827	      1.91978496	     -0.24979017	     -0.60263711	     14.02000738	     -1.85234399	      0.00000000	      0.00000000	      0.00000000	      0.00000000	      0.00000000	     65.01769453	    -11.43808578	     29.29075354	     36.40159573	     49.64886348	      0.00000000	      5.00000014	     61.47154485	     -5.42141950	     16.33273356	     33.06123074	     55.24881618	      0.00000000	      5.00000014
     10.41700000	    -42.30419754	     -7.03315125	      0.90316526	     -0.39147394	      1.11665440	      0.00603511	    104.18355028	     -8.54131556	     -8.39071790	     74.32041197	      1.29713589	     10.97288747	     -6.95963306	      0.00000000	     91.33254564	     -2.81048452	     11.00901125	     83.87889193	      1.46396284	      2.94548180	     -7.21390374	      0.00000000	     -0.08636221	      1.24346737	     -0.36229800	     -0.16038326	      1.65381161	     -0.38494162	     -0.14188447	      3.02336657	     -0.38494162	     -0.09870337	      3.02336657	     -0.31701075	     -0.08019595	      2.53567867	     -0.29436712	     -0.04934737	      1.92613096	     -0.27172350	     -0.61687663	     14.06635164	     -2.01499278	      0.00000000	      0.00000000	      0.00000000	      0.00000000	      0.00000000	     64.86711029	    -11.37648770	     28.44795614	     36.69677519	     49.55298273	      0.00000000	      5.00000014	     61.72465892	     -5.43142179	     16.69018236	     32.80955944	     55.37122365	      0.00000000	      5.00000014
     10.42500000	    -42.26623566	     -6.83980837	      1.32396895	     -0.39136394	      1.11647432	      0.00616493	    103.11367288	     -8.74989136	     -8.35909439	     72.61436094	      1.26735968	     10.41802923	     -6.89758043	      0.00000000	     92.00078828	     -2.23744679	     11.01801188	     85.40299138	      1.49056339	      3.25138479	     -7.25052506	      0.00000000	     -0.08582619	      1.20310021	     -0.43802287	     -0.15938782	      1.60012328	     -0.46539930	     -0.14100385	      2.92521786	     -0.46539930	     -0.09809075	      2.92521786	     -0.38327001	     -0.07969820	      2.45336195	     -0.35589358	     -0.04904108	      1.86360223	     -0.32851716	     -0.61304788	     13.60971022	     -2.43615182	      0.00000000	      0.00000000	      0.00000000	      0.00000000	      0.00000000	     64.68682213	    -11.29531990	     28.24727302	     36.85672768	     49.53153707	      0.00000000	      5.00000014	     61.82506913	     -5.55080413	     16.75196327	     32.78525440	     55.40262814	      0.00000000	      5.00000014
     10.43300000	    -42.24716976	     -6.96654185	      1.38559438	     -0.39114985	      1.11639431	      0.00652636	    101.86170164	     -8.64377735	     -8.82148338	     70.68333599	      1.23365694	      9.82955565	     -7.19303505	      0.00000000	     92.80920606	     -2.00137469	     11.41403976	     87.05497584	      1.51939596	      3.43770662	     -7.00030309	      0.00000000	     -0.08504830	      1.20764466	     -0.43832710	     -0.15794319	      1.60616740	     -0.46572255	     -0.13972585	      2.93626723	     -0.46572255	     -0.09720170	      2.93626723	     -0.38353622	     -0.07897585	      2.46262899	     -0.35614077	     -0.04859660	      1.87064158	     -0.32874533	     -0.60749149	     13.66111792	     -2.43784385	      0.00000000	      0.00000000	      0.00000000	      0.00000000	      0.00000000	     64.40919090	    -11.23975851	     27.34282493	     37.12151988	     49.43452926	      0.00000000	      5.00000014	     61.87000558	     -5.58304762	     17.06842460	     32.77294203	     55.52919290	      0.00000000	      5.00000014
     10.44200000	    -42.20511966	     -6.78452638	      1.65829155	     -0.39090657	      1.11641338	      0.00666835	    100.67336356	     -8.68593064	     -8.82952316	     68.81447568	      1.20103917	      9.24964737	     -7.07063326	      0.00000000	     93.47988947	     -1.49573823	     11.49098565	     88.52743069	      1.54509514	      3.65523482	     -7.01648769	      0.00000000	     -0.08442848	      1.17320941	     -0.49618072	     -0.15679213	      1.56036851	     -0.52719202	     -0.13870755	      2.85254135	     -0.52719202	     -0.09649331	      2.85254135	     -0.43415813	     -0.07840029	      2.39240862	     -0.40314684	     -0.04824243	      1.81730137	     -0.37213554	     -0.60306420	     13.27157945	     -2.75960833	      0.00000000	      0.00000000	      0.00000000	      0.00000000	      0.00000000	     64.20414316	    -11.12061617	     27.12788566	     37.22905618	     49.41542715	      0.00000000	      5.00000014	     61.87192074	     -5.73173643	     17.11726364	     32.78632220	     55.56657819	      0.00000000	      5.00000014
     10.45000000	    -42.17553778	     -6.84905055	      1.51010915	     -0.39050506	      1.11635333	      0.00717428	     99.36948072	     -8.35586937	     -9.24626771	     66.83631818	      1.16651381	      8.63430151	     -7.02560481	      0.00000000	     94.29411541	     -1.38113395	     11.88516464	     90.21401553	      1.57453160	      3.76162638	     -7.00927290	      0.00000000	     -0.08458817	      1.17559908	     -0.47720637	     -0.15708869	      1.56354678	     -0.50703176	     -0.13896990	      2.85835161	     -0.50703176	     -0.09667582	      2.85835161	     -0.41755557	     -0.07854857	      2.39728165	     -0.38773017	     -0.04833368	      1.82100298	     -0.35790477	     -0.60420482	     13.29861197	     -2.65407864	      0.00000000	      0.00000000	      0.00000000	      0.00000000	      0.00000000	     64.01067287	    -10.97934626	     26.61156729	     37.29160658	     49.37205821	      0.00000000	      5.00000014	     61.79999595	     -5.85507481	     17.23770500	     32.91158058	     55.65167640	      0.00000000	      5.00000014
     10.45800000	    -42.14968246	     -6.76809828	      1.37564983	     -0.39006203	      1.11634885	      0.00760872	     98.09040720	     -8.01454661	     -9.47642264	     64.86249038	      1.13206402	      7.97050204	     -6.89916058	      0.00000000	     95.08579648	     -1.22184588	     12.14065047	     91.83033913	      1.60274177	      3.87531200	     -7.12043047	      0.00000000	     -0.08468961	      1.16130725	     -0.47103090	     -0.15727707	      1.54453865	     -0.50047033	     -0.13913655	      2.82360245	     -0.50047033	     -0.09679175	      2.82360245	     -0.41215204	     -0.07864277	      2.36813775	     -0.38271261	     -0.04839164	      1.79886493	     -0.35327318	     -0.60492939	     13.13693990	     -2.61973257	      0.00000000	      0.00000000	      0.00000000	      0.00000000	      0.00000000	     63.85946697	    -10.80949047	     26.33580423	     37.26781319	     49.36191916	      0.00000000	      5.00000014	     61.71410991	     -6.03307058	     17.27202412	     33.02816238	     55.71873429	      0.00000000	      5.00000014
